# xmcd CD database file
#
# Track frame offsets:
#	150
#	21188
#	34326
#	66865
#	86377
#	100729
#	121724
#	141230
#	180100
#
# Disc length: 4034 seconds
#
# Revision: 0
# Processed by: cddbd v1.5.1PL0 Copyright (c) Steve Scherf et al.
# Submitted via: CDex 1.51
#
DISCID=690fc009
DTITLE=Twinset - Lifestyle
DYEAR=2004
DGENRE=Jazz
TTITLE0=Boil the Jug
TTITLE1=San Pedro Sula (Bossa Mix)
TTITLE2=Black and White Cat
TTITLE3=Talkin' Bout Last Nite
TTITLE4=Minor Glue
TTITLE5=Journey To Jupiter
TTITLE6=San Pedro Sula (Swing Mix)
TTITLE7=Won't You Weep For Me
TTITLE8=Music Video
EXTD=YEAR: 2004
EXTT0=
EXTT1=
EXTT2=
EXTT3=
EXTT4=
EXTT5=
EXTT6=
EXTT7=
EXTT8=
PLAYORDER=
